<svg xmlns="http://www.w3.org/2000/svg" viewBox="0 0 90.511 90.511" enable-background="new 0 0 90.511 90.511"><defs><filter filterUnits="userSpaceOnUse" x="1.475" y="1.396" width="87.911" height="87.912"><feColorMatrix values="-1 0 0 0 1 0 -1 0 0 1 0 0 -1 0 1 0 0 0 1 0" color-interpolation-filters="sRGB" result="source"/><feFlood result="back" flood-color="#fff" flood-opacity="1"/><feBlend in="source" in2="back"/></filter></defs><g mask="url(#SVGID_1_)"><defs><filter filterUnits="userSpaceOnUse" x="1.475" y="1.396" width="87.911" height="87.912"><feFlood result="back" flood-color="#fff" flood-opacity="1"/><feBlend in="SourceGraphic" in2="back"/></filter></defs><linearGradient id="a" gradientUnits="userSpaceOnUse" x1="58.981" y1="88.123" x2="33.267" y2="6.961"><stop offset="0" stop-color="#CC2026"/><stop offset="1" stop-color="#EE2A24"/></linearGradient><circle fill="url(#a)" cx="45.43" cy="45.352" r="43.956"/><path fill="#fff" d="M45.43 1.396h-1.438999999999998l-.043.001h-.6060000000000003l-.012.001h-.005l-.012.001h-.007l-.011.001h-.002l-.048.002h-.003l-.029.001h-.060000000000000005l-.011.001h-.007l-.013.001h-.004l-.013.001h-.006l-.012.001h-.006l-.011.001h-.007l-.01.001h-.043000000000000003l-.01.001h-.008l-.01.001h-.008l-.01.001h-.008l-.01.001h-.008l-.01.001h-.008l-.01.001h-.007l-.01.001h-.008l-.009.001h-.008l-.01.001h-.008l-.01.001h-.006l-.011.001h-.007l-.011.001h-.007l-.011.001h-.008l-.01.001h-.008l-.01.001h-.008l-.01.001h-.007l-.01.001h-.007l-.011.001h-.005l-.013.001h-.005l-.012.001h-.006l-.012.001h-.006l-.012.001h-.006l-.011.001h-.006l-.012.001h-.003l-.117.008h-.002l-.013.001h-.005l-.013.001h-.004l-.014.001h-.004l-.014.001h-.004l-.014.001h-.004l-.013.001h-.005l-.012.001h-.006l-.01.001-.007.001-.011.001h-.007l-.011.001h-.006l-.012.001h-.006l-.011.001h-.006l-.012.001h-.006l-.012.001h-.006l-.012.001h-.006l-.011.001h-.006l-.012.001h-.005l-.012.001h-.006l-.012.001h-.006l-.011.001h-.006l-.011.001h-.007l-.01.001-.007.001-.011.001-.007.001-.01.001-.008.001-.01.001-.008.001-.01.001-.007.001-.011.001h-.005l-.013.001h-.004l-.014.001h-.001l-.016.001h-.004l-.014.001h-.002l-.015.001h-.004l-.133.011h-.002l-.032.003h-.003l-.015.001h-.002l-.014.001h-.003l-.016.001h-.001l-.014.001h-.004l-.013.001h-.005l-.011.001-.007.001-.011.001h-.006l-.012.001h-.006l-.012.001h-.005l-.012.001h-.006l-.012.001h-.005l-.012.001h-.005l-.012.001-.006.001-.011.001-.007.001-.011.001-.006.001-.012.001h-.005l-.012.001h-.005l-.012.001h-.006l-.012.001h-.004l-.013.001h-.004l-.013.001h-.005l-.012.001-.006.001-.012.001h-.004l-.013.001h-.004l-.013.001h-.004l-.013.001h-.005l-.013.001h-.003l-.015.001h-.001l-.016.002h-.002l-.016.002h-.003l-.188.018h-.001l-.014.001h-.004l-.015.001h-.002l-.014.001h-.003l-.013.001h-.005l-.011.001-.006.001-.011.001-.006.001-.012.001h-.005l-.013.001h-.005l-.012.001-.005.001-.013.001h-.003l-.015.002h-.002l-.015.002h-.003l-.014.001h-.004l-.014.001h-.003l-.022.073h-.003l-.014.002h-.003l-.014.001h-.004l-.014.002h-.003l-.014.002h-.004l-.014.001h-.004l-.013.001-.005.001-.013.001h-.004l-.013.001h-.004l-.014.002h-.003l-.014.002h-.003l-.014.002h-.002l-.016.002h-.002l-.033.004h-.001l-.275.031-.034.004h-.001l-.017.002-.016.002h-.003l-.015.002h-.002l-.015.002h-.002l-.016.002h-.001l-.015.002h-.003l-.014.002h-.002l-.014.002h-.003l-.014.002h-.003l-.014.002h-.003l-.015.002h-.002l-.015.002h-.003l-.015.002h-.002l-.015.002h-.002l-.015.002h-.001l-.016.002h-.002l-.016.002h-.001l-.016.002h-.002l-.015.002h-.001l-.016.002h-.001l-.377.049-.07.015-.034.005-.034.005h-.001l-.017.002-.051.007h-.001l-.512.075-.017.003-.016.002h-.001c-3.783.578-7.408 1.639-10.809 3.117l3.587 8.254c4.393-1.909 9.076-2.877 13.916-2.877v-9zm-32.105 13.933c-.33.353-.654.711-.972 1.074l-.001.001-.01.012-.002.002-.01.011-.001.001-.01.012-.001.002-.01.012-.001.001-.009.011-.002.003-.01.012-.001.001-.011.012-.001.001-.01.012-.001.001-.01.012-.001.001-.046.052-.023.026-.001.001-.01.011-.003.003-.008.01-.003.004-.008.01-.003.003-.008.01-.004.004-.007.009-.004.005-.007.008-.004.005-.008.009-.003.004-.007.008-.004.005-.007.008-.004.005-.006.007-.005.006-.007.008-.004.005-.007.009-.004.004-.01.012-.001.001-.011.013-.005.006-.006.007-.006.007-.005.006-.006.007-.005.006-.006.007-.005.006-.006.007-.005.006-.005.006-.005.006-.006.007-.005.006-.005.006-.005.006-.006.007-.005.006-.006.007-.005.006-.006.007-.005.005-.006.007-.004.005-.007.008-.003.004-.007.009-.003.004-.008.009-.002.002-.009.011-.001.001-.039.047-.003.004-.008.01-.002.003-.008.009-.003.004-.007.009-.004.004-.007.008-.004.005-.007.009-.003.003-.008.009-.003.004-.007.008-.004.005-.007.008-.004.005-.007.008-.003.004-.008.009-.003.004-.007.009-.003.004-.008.009-.003.003-.061.073-.01.011-.001.002-.008.01-.003.004-.008.01-.002.003-.009.01-.002.002-.009.011-.002.002-.008.01-.003.003-.008.01-.002.003-.008.01-.003.003-.008.01-.002.003-.008.01-.003.003-.008.01-.001.002-.072.087-.001.001-.01.012-.01.012v.001l-.021.025-.01.012-.01.012-.001.001-.01.012-.01.012-.001.001c-1.056 1.295-2.039 2.651-2.944 4.063l-.142.223-.001.001-.132.21-.008.012-.002.003-.007.012-.002.003-.008.012-.001.002-.008.013-.001.001-.008.013-.001.002-.086.139-.016.027-.001.002-.007.012-.001.002-.008.013-.001.002-.008.013v.001l-.008.013-.001.002-.008.012-.001.001-.008.013v.001l-.068.112v.001l-.007.012-.002.003-.006.01-.003.005-.006.009-.003.005-.005.009-.003.006-.005.009-.003.006-.005.009-.003.006-.006.01-.003.004-.006.01-.003.005-.006.01-.003.005-.005.009-.003.006-.006.01-.002.003-.006.011-.003.004-.006.011-.002.003-.007.011-.003.005-.02.034-.003.005-.004.008-.005.008-.005.008-.003.005-.006.01-.003.005-.005.009-.004.006-.005.008-.004.007-.005.008-.004.006-.005.009-.004.006-.005.008-.004.006-.005.008-.004.007-.005.008-.003.005-.006.01-.003.005-.005.009-.004.006-.005.008-.005.008-.004.007-.005.008-.004.007-.008.013-.001.001-.018.03-.003.004-.006.01-.004.007-.005.008-.003.006-.005.009-.003.005-.006.009-.003.006-.005.009-.004.007-.005.008-.003.006-.005.009-.004.006-.005.008-.004.007-.005.008-.004.007-.005.009-.003.005-.006.01-.003.005-.006.011-.002.004-.006.011-.003.004-.035.059-.002.003-.007.012-.002.003-.007.012-.002.004-.007.011-.002.003-.007.011-.002.004-.007.011-.002.003-.007.011-.002.004-.006.011-.002.004-.006.01-.003.005-.007.011-.002.003-.007.012-.001.002-.008.014-.096.167-.001.001-.008.014v.001l-.008.014-.001.002-.008.014v.001c-1.248 2.196-2.311 4.509-3.171 6.92l8.477 3.022c1.612-4.522 4.103-8.604 7.404-12.133l-6.579-6.148zm-2.773 32.374l-8.98.594c.26 3.923 1.034 7.706 2.256 11.281l.132.381v.001l.005.015v.001l.005.016.005.016.005.015.001.002.005.015v.001l.005.014.001.002.005.014.001.002.005.013.001.004.005.013.001.003.005.014.001.002.005.015v.001l.005.015.001.002.005.014v.001l.005.015v.001l.011.031v.001l.068.187.001.002.006.015.005.015v.001l.005.015v.001l.005.013.001.004.004.012.001.004.004.012.002.004.004.012.001.003.004.012.002.004.004.012.001.004.005.012.001.003.005.013.001.003.005.013.001.004.005.013.001.002.005.013.001.003.005.013.001.002.005.014.001.003.005.013.001.002.005.014.001.002.005.014v.001l.005.015.052.139.001.002.005.012.001.004.005.012.001.004.004.011.002.005.004.011.002.005.004.01.002.006.004.011.002.005.004.011.002.005.004.011.002.004.004.01.002.006.004.01.002.005.004.01.002.006.004.01.002.005.004.01.002.006.004.01.002.006.004.01.002.006.004.011.002.004.004.011.002.005.004.011.002.005.004.011.002.005.004.011.002.004.004.011.002.006.004.01.002.006.004.01.002.005.021.054.002.004.011.028.001.004.005.012.002.004.004.01.003.007.004.01.002.005.004.01.003.006.004.009.002.006.004.009.003.007.004.009.003.006.004.009.003.007.003.009.003.007.003.009.003.008.003.008.003.007.004.01.003.007.004.009.003.007.003.009.003.008.003.008.003.007.004.009.003.007.003.008.003.008.003.008.003.009.003.007.003.008.003.008.003.008.003.008.003.008.003.007.004.01.002.006.004.009.003.007.004.009.003.007.013.032.006.016.003.006.004.01.002.005.004.011.002.005.004.011.005.001.004.011.002.006.004.01.002.006.004.01.002.005.004.01.002.006.004.01.003.006.004.01.002.006.004.01.002.006.004.01.003.006.004.009.003.007.004.01.002.005.004.01.003.006.004.009.003.007.004.009.003.008.003.008.003.007.004.01.003.007.004.01.002.005.004.01.003.006.004.011.002.005.005.011.002.005.005.011.002.004.005.011.002.005.046.111.006.015.002.004.005.013.001.002.006.013.001.003.006.013.001.002.006.013.001.003.006.013.001.002.006.013.001.003.005.013.001.003.005.012v.005l.005.012.002.004.005.012.001.004.005.013.001.003.005.013.001.002.006.013.001.003.005.013.001.003.005.013.001.003.005.012.002.004.005.012.002.004.006.013.001.002.006.015.082.191v.001l.006.015.001.002.006.014.001.001.006.014.001.002.006.014.001.002.006.014.001.002.006.013.001.002.006.014.001.002.006.013.001.002.006.013.003.004.006.013.001.003.006.013.001.002.013.03.001.001.006.014.001.002.006.014.001.001.006.016.006.014.001.003.084.189.007.015v.001l.007.015v.001l.007.015v.001l.006.014.001.003.006.013.001.002.006.014.001.002.006.015v.001l.006.014.001.002.006.014.001.002.006.014.001.002.007.014v.001l.006.014.001.001.143.313.001.001.007.015.007.015v.001l.007.014.001.002.006.013.001.003.006.013.001.001.007.014.001.001.007.014.001.001.007.014.001.001.206.436.395.804.031.061.18.352.007.014v.001l7.994-4.134c-2.207-4.26-3.487-8.863-3.805-13.673zm12.77 24.727l-5.697 6.967c3.524 2.882 7.502 5.226 11.812 6.911h.001l.015.006.015.006h.001l.015.006h.001l.015.006.001.001.015.006.155.06h.001l.014.005.002.001.013.005.002.001.013.005.004.001.012.005.004.001.012.005.005.002.011.004.005.002.011.004.006.002.01.004.006.002.009.003.007.003.01.004.006.002.01.004.007.003.009.003.008.003.008.003.008.003.019.007.005.002.007.003.009.003.007.003.009.003.009.003.006.002.01.004.007.003.009.003.007.003.009.003.008.003.008.003.008.003.008.003.009.003.007.002.01.004.006.002.01.004.006.002.009.003.007.003.009.003.007.003.01.004.006.002.011.004.005.002.011.004.006.002.012.005.004.001.049.018.004.001.013.005.002.001.015.005h.001l.015.005.002.001.014.005.002.001.014.005h.001l.015.005.002.001.014.005.003.001.013.005.003.001.014.005.003.001.014.005.003.001.014.005.002.001.015.005.002.001.2.072.033.012h.001c.925.33 1.864.63 2.816.898l2.443-8.657c-4.619-1.303-8.856-3.513-12.594-6.57zm40.18 2.851c-4.117 2.493-8.622 4.08-13.388 4.717l1.192 8.921c2.957-.395 5.82-1.084 8.561-2.036h.001l.016-.005.016-.006h.001l.016-.006.016-.005h.001l.016-.005h.001l.015-.005.002-.001.015-.005h.001l.014-.005.003-.001.015-.005h.001l.033-.011.016-.006.115-.041h.001l.015-.005.004-.002.012-.004.004-.001.012-.005.004-.001.012-.004.005-.002.011-.004.005-.002.011-.004.004-.001.012-.004.005-.002.011-.004.006-.002.01-.004.006-.002.01-.004.005-.002.011-.004.006-.002.01-.004.006-.002.01-.003.007-.003.01-.004.005-.002.011-.004.005-.002.01-.004.006-.002.01-.004.006-.002.014-.005.002-.001.015-.005h.001l.065-.024.003-.001.013-.005.006-.002.01-.004.007-.003.009-.003.007-.003.009-.003.009-.003.007-.003.01-.004.006-.002.01-.004.007-.003.009-.003.006-.002.009-.004.007-.003.009-.004.006-.002.01-.004.006-.002.01-.004.006-.002.009-.003.008-.003.009-.003.007-.002.009-.004.006-.002.01-.004.006-.002.01-.004.005-.002.011-.004.003-.001.013-.005h.001l.109-.041.014-.005.002-.001.014-.005.002-.001.013-.005.004-.001.013-.005.003-.001.012-.005.004-.001.013-.005.003-.001.013-.005.003-.001.014-.005h.001l.014-.005.002-.001.015-.006.016-.006c2.454-.939 4.803-2.093 7.022-3.437l-4.658-7.704zm16.134-22.686c-.989 4.698-2.908 9.072-5.705 13.001l7.332 5.219c3.434-4.824 5.918-10.371 7.18-16.367l-8.807-1.853zm1.813-32.444l-7.37 5.166c2.768 3.949 4.655 8.337 5.609 13.043l8.821-1.788c-.961-4.742-2.686-9.206-5.039-13.26l-.017-.03-.017-.03-.017-.03v-.001l-.008-.014v-.001l-.008-.014-.001-.002-.008-.014v-.001l-.008-.014v-.001l-.088-.15-.009-.014-.001-.002-.008-.013-.001-.002-.007-.012-.002-.003-.006-.011-.003-.005-.006-.01-.003-.004-.006-.011-.002-.004-.007-.011-.001-.003-.007-.012-.002-.003-.007-.012-.002-.003-.007-.012-.002-.003-.008-.013-.001-.001-.008-.013-.001-.002-.071-.118-.002-.003-.007-.012-.001-.002-.008-.013-.002-.003-.008-.013-.001-.001-.008-.013-.002-.003-.007-.012-.002-.003-.007-.012-.002-.003-.007-.012-.002-.003-.007-.012-.002-.003-.007-.012-.001-.002-.008-.013-.001-.002-.009-.014-.008-.013-.001-.002-.009-.014-.036-.059-.009-.014-.001-.002-.008-.013-.003-.004-.006-.01-.004-.006-.005-.009-.003-.005-.006-.009-.003-.006-.005-.009-.004-.006-.005-.008-.005-.007-.005-.008-.004-.006-.006-.009-.004-.006-.005-.009-.004-.006-.005-.008-.004-.006-.005-.009-.003-.005-.005-.009-.004-.006-.005-.008-.004-.006-.005-.007-.005-.008-.005-.008-.004-.006-.005-.008-.004-.006-.005-.008-.004-.006-.004-.005-.011-.018-.004-.006-.003-.004-.006-.01-.005-.008-.004-.007-.006-.009-.003-.005-.005-.008-.004-.007-.005-.008-.004-.006-.005-.008-.004-.006-.006-.009-.003-.004-.006-.01-.003-.005-.006-.01-.002-.004-.007-.01-.003-.004-.006-.01-.002-.004-.007-.011-.002-.004-.007-.01-.002-.004-.007-.011-.002-.003-.007-.011-.001-.002-.008-.012-.002-.003-.007-.011-.001-.002-.07-.11-.009-.014-.008-.013-.001-.001-.008-.012-.001-.002-.008-.013-.001-.001-.008-.012-.002-.003-.007-.011-.002-.003-.007-.011-.002-.003-.007-.012-.001-.002-.007-.012-.002-.003-.007-.011-.002-.003-.007-.011-.002-.003-.008-.012-.125-.194-.009-.013-.001-.001c-.281-.436-.57-.863-.867-1.287zm-29.823-18.322l-1.257 8.912c4.76.672 9.253 2.292 13.353 4.815l4.718-7.664c-1.426-.878-2.906-1.676-4.433-2.39h-.001l-.06-.028-.06-.028-.181-.083h-.001l-.014-.006-.001-.001-.014-.006-.001-.001-.013-.006-.002-.001-.012-.005-.004-.002-.011-.005-.005-.002-.01-.005-.005-.002-.011-.005-.004-.002-.01-.005-.005-.002-.011-.005-.004-.002-.011-.005-.005-.002-.011-.005-.005-.002-.01-.004-.007-.003-.009-.004-.009-.005-.01-.004-.006-.003-.009-.004-.007-.003-.008-.004-.008-.004-.008-.004-.007-.003-.008-.004-.005-.002-.015-.007-.026-.012-.006-.003-.009-.004-.009-.004-.006-.003-.008-.004-.008-.004-.006-.003-.009-.004-.007-.003-.009-.004-.007-.003-.008-.004-.007-.003-.01-.004-.005-.002-.01-.004-.006-.003-.009-.004-.006-.003-.009-.004-.007-.003-.01-.004-.005-.002-.01-.005-.006-.003-.01-.004-.006-.003-.01-.004-.006-.003-.012-.005-.003-.001-.013-.006-.003-.001-.014-.006-.002-.001-.014-.006-.002-.001-.159-.07h-.001l-.016-.007-.016-.007-.001-.001-.015-.007-.015-.007-.002-.001-.015-.006h-.001l-.015-.006-.001-.001-.015-.007-.016-.007c-3.515-1.511-7.266-2.58-11.182-3.132zM45.43 16.467c-.689 0-1.385.025-2.07.073l.071.997.409-.026h.002l.031-.002h.015l.016-.001h.027000000000000003l.012-.001h.02l.01-.001h.004l.013-.001h.019l.014-.001h.003l.011-.001h.004l.013-.001h.001l.014-.001h.003l.013-.001h.002l.03-.001h.002l.03-.001h.001l.015-.001.031-.001h.001l.625-.02.047-.001.031-.001.031-.001h.017l.031-.001h.4560000000000002v-1.005h-.005zm-4.129.294c-.681.098-1.367.222-2.039.369l.213.977.832-.168.063-.012h.001l.01-.002h.001l.03-.005h.002l.03-.005h.002l.029-.005.003-.001.009-.002.003-.001.017-.003h.003l.009-.002.004-.001.027-.005.004-.001.008-.001h.003l.016-.003.005-.001.008-.001.005-.001.013-.002.005-.001.008-.001.006-.001.013-.002.006-.001.007-.001.006-.001.007-.001.008-.001.01-.002.006-.001.008-.001.006-.001.011-.002.007-.001.007-.001.006-.001.01-.002.008-.001.007-.001.006-.001.007-.001.011-.002.007-.001.007-.001.007-.001.008-.001.01-.002.007-.001.006-.001.008-.001.01-.002.007-.001.007-.001.007-.001.007-.001.011-.002.007-.001.007-.001.007-.001.01-.002.008-.001.006-.001.007-.001.006-.001.012-.002.006-.001.008-.001.005-.001.013-.002.006-.001.008-.001.006-.001.007-.001.007-.001.012-.002.006-.001.008-.001.005-.001.014-.002.005-.001.008-.001.005-.001.015-.002.004-.001.008-.001.004-.001.028-.004.004-.001.009-.001h.001l.019-.003h.003l.01-.002h.001l.031-.005h.001l.031-.005.178-.026-.142-.996zm-4.046.884c-.659.195-1.32.416-1.964.659l.352.936c.622-.234 1.254-.446 1.896-.636l-.284-.959zm-3.876 1.457c-.624.288-1.246.602-1.849.934l.483.876.321-.174h.001l.027-.014.001-.001.026-.014.002-.001.025-.013.003-.001.025-.013.004-.002.008-.004.001-.001.015-.008.004-.002.007-.004.004-.002.012-.006.004-.002.007-.004.006-.003.01-.005.006-.003.006-.003.006-.003.009-.005.006-.003.006-.003.007-.004.007-.004.008-.004.005-.003.008-.004.005-.003.01-.005.005-.003.008-.004.004-.002.011-.006.004-.002.009-.005.003-.002.011-.006.004-.002.009-.005.003-.002.012-.006.003-.002.01-.005.003-.001.012-.006.003-.001.011-.006.002-.001.013-.007.002-.001.012-.006.002-.001.013-.006.002-.001.011-.006.002-.001.013-.007.013-.006.002-.001.013-.007.013-.007.002-.001.026-.013.002-.001.026-.013.001-.001.027-.013.001-.001.027-.014h.001l.027-.014h.001l.027-.014h.001l.097-.048.028-.014.028-.014.028-.014.028-.014h.001l.028-.013.028-.013.028-.013.028-.013.028-.013.028-.013h.001l.042-.02h.001l.014-.007.014-.007h.001l.027-.013.001-.001.014-.006.013-.006.002-.001.026-.012.003-.001.026-.012.003-.001.026-.012.003-.001.012-.006h.001l.013-.006.003-.001.012-.006h.001l.013-.006.003-.001.01-.005.003-.001.012-.006.003-.002.01-.005.003-.001.012-.006.004-.002.009-.004.004-.002.011-.005.004-.002.008-.004.004-.002.011-.005.005-.002.008-.004.003-.002-.42-.912zm-3.626 1.998c-.577.374-1.147.774-1.696 1.188l.603.798.2-.15.025-.018.024-.018.001-.001.011-.008.012-.009.002-.001.01-.008.002-.001.011-.008.002-.002.009-.007.003-.002.011-.008.003-.002.009-.006.003-.002.011-.008.003-.002.008-.006.003-.002.01-.008.004-.003.008-.006.004-.003.01-.007.005-.003.006-.005.005-.003.009-.007.005-.003.007-.005.005-.003.009-.006.006-.004.006-.004.005-.004.007-.005.007-.005.006-.004.005-.004.007-.005.008-.006.005-.004.006-.004.006-.004.008-.006.006-.004.006-.004.005-.003.01-.007.004-.003.006-.004.005-.004.009-.007.005-.003.006-.004.004-.003.011-.008.004-.003.006-.004.005-.003.01-.007.005-.004.006-.004.004-.003.011-.008.004-.003.006-.004.005-.003.011-.008.004-.003.007-.005.004-.003.011-.008.004-.003.006-.005.004-.003.01-.007.005-.003.006-.004.004-.003.011-.008.004-.003.006-.004.005-.003.011-.008.004-.003.007-.005.004-.003.013-.009.002-.002.007-.005.004-.003.011-.008.005-.003.006-.004.004-.003.011-.008.004-.003.006-.004.005-.003.008-.006.007-.005.006-.004.005-.003.006-.004.009-.006.006-.004.005-.003.006-.004.009-.006.006-.004.005-.003.006-.004.009-.006.006-.004.005-.004.006-.004.009-.006.006-.004.005-.003.006-.004.006-.004.009-.006.005-.003.006-.004.008-.005.007-.005.005-.003.006-.004.005-.004.009-.006.005-.004.006-.004.005-.004.01-.007.005-.003.006-.004.006-.004.008-.006.005-.004.006-.004.006-.004.009-.006.005-.003.006-.004.005-.003.009-.006.006-.004.006-.004.005-.003.011-.007.004-.003.007-.005.004-.003.012-.008.004-.003.007-.005.004-.003.012-.008.003-.002.007-.005.003-.002.013-.009.003-.002.007-.005.002-.002.015-.01.001-.001.008-.005.003-.002.015-.01h.001l.008-.005.002-.001.025-.017h.001l.256-.168-.547-.842zm-3.303 2.494c-.518.452-1.026.929-1.51 1.417l.71.705.322-.319.021-.021.001-.001.01-.01.001-.001.01-.009.002-.002.01-.01.001-.001.009-.009.002-.002.01-.01.001-.001.009-.009.002-.002.01-.01.001-.001.009-.009.003-.003.01-.009.002-.002.008-.008.003-.003.009-.009.003-.003.008-.007.004-.003.008-.008.003-.003.007-.007.004-.004.007-.007.005-.005.006-.006.004-.004.006-.006.006-.006.006-.006.004-.004.007-.006.005-.005.006-.006.004-.004.006-.005.007-.007.005-.005.005-.005.005-.004.008-.008.005-.004.005-.005.004-.003.01-.009.003-.003.006-.005.004-.004.009-.009.004-.004.006-.005.004-.003.01-.01.003-.003.006-.006.003-.003.012-.011.002-.002.007-.006.002-.002.013-.013h.001l.007-.006.003-.002.013-.012.001-.001.007-.006.003-.002.021-.019.002-.002.012-.011.002-.002.006-.006.002-.002.021-.019.002-.002.021-.019.002-.002.021-.019.002-.002.021-.02.001-.001.021-.02.002-.002.021-.019.002-.001.021-.02.002-.002.021-.019.002-.002.021-.019.003-.002.021-.019.003-.002.02-.019.003-.003.021-.019.002-.002.021-.019.003-.003.021-.018.003-.002.007-.006.002-.002.012-.011.003-.003.006-.006.002-.002.012-.01.003-.003.006-.006.002-.001.012-.011.004-.003.006-.005.003-.003.01-.009.004-.003.006-.005.005-.005.008-.007.005-.004.005-.005.005-.005.008-.007.004-.004.006-.005.005-.005.008-.007.006-.005.005-.004.007-.006.006-.005.006-.005.005-.004.007-.006.006-.005.006-.005.005-.004.008-.007.005-.004.007-.006.005-.004.007-.006.005-.004.007-.006.004-.003.009-.008.003-.002.008-.007.003-.003.009-.008.002-.002.009-.008.003-.003.01-.008.001-.001.01-.009.002-.001-.663-.758zm-2.916 2.937c-.449.521-.884 1.065-1.294 1.616l.802.597.065-.087.018-.024.001-.001.018-.024.001-.002.009-.012v-.001l.008-.011.002-.003.008-.011.001-.001.008-.01.002-.003.008-.01.001-.002.007-.009.003-.004.007-.009.003-.004.007-.009.003-.004.006-.008.004-.005.006-.007.004-.005.005-.007.005-.006.005-.007.004-.005.004-.005.007-.009.004-.005.005-.006.004-.005.007-.009.004-.005.004-.006.003-.005.008-.011.003-.003.005-.007.002-.003.01-.014.001-.001.006-.007.001-.002.018-.023.001-.002.018-.023.001-.001.018-.024.001-.001.038-.049.418-.523.001-.001.012-.015.001-.002.006-.007.001-.002.011-.013.001-.002.006-.007.003-.003.009-.01.003-.004.005-.006.004-.005.007-.008.004-.005.005-.006.004-.005.007-.008.005-.006.004-.005.005-.005.005-.006.006-.007.004-.005.005-.006.003-.004.008-.009.003-.004.006-.008.002-.003.008-.01.003-.003.007-.008.002-.002.009-.011.002-.002.008-.01.001-.001.009-.011.002-.002.008-.01.001-.001.01-.011.001-.001.02-.023.202-.238-.757-.652zm-2.47 3.321c-.37.58-.724 1.18-1.051 1.785l.879.476c.236-.436.484-.865.742-1.286l.016-.026.001-.001.015-.025.001-.002.007-.012.007-.012.002-.003.006-.01.002-.003.007-.011.003-.004.005-.007.003-.005.006-.01.003-.005.004-.006.004-.006.005-.009.004-.006.003-.005.007-.011.003-.004.004-.007.002-.004.015-.024.001-.002.016-.026.121-.191-.843-.538zm-1.972 3.64c-.283.627-.547 1.272-.785 1.917l.939.345.211-.556.006-.014v-.001l.005-.013.001-.002.005-.013.001-.001.005-.012.001-.003.005-.013.001-.002.004-.01.002-.004.005-.012.001-.003.004-.01.002-.005.003-.009.003-.007.003-.008.003-.007.002-.006.004-.011.002-.006.003-.007.002-.005.006-.014.001-.003.003-.008.002-.004.01-.026.001-.003.011-.028v-.001l.011-.028v-.001l.271-.645.012-.028.001-.002.012-.027.001-.003.011-.026.001-.003.003-.008.001-.003.006-.014.002-.004.003-.008.002-.005.005-.011.003-.006.003-.006.003-.007.004-.008.003-.007.003-.006.004-.008.002-.005.004-.01.002-.005.004-.009.001-.003.005-.012.002-.004.004-.01.001-.003.005-.012.001-.003.005-.011.001-.002.006-.013.001-.002.005-.012.001-.001.006-.014.006-.014v-.001l.006-.014-.905-.411zm-1.429 3.887c-.19.661-.358 1.337-.5 2.011l.979.206.178-.786v-.001l.008-.031.008-.031.018-.073.008-.031v-.001l.026-.104v-.001l.008-.031.008-.03v-.001l.019-.072.008-.031.008-.031.008-.031.138-.508.008-.03v-.001l.008-.029.001-.002.003-.009v-.001l.005-.019.001-.002.003-.009.001-.002.005-.018v-.001l.003-.009.001-.003.002-.007-.963-.281zm-.854 4.052c-.093.68-.162 1.374-.206 2.061l.998.064.038-.523v-.001l.003-.032v-.001l.004-.044.003-.032v-.001l.003-.031v-.001l.001-.01.002-.022.001-.01v-.002l.003-.031v-.002l.004-.043v-.001l.003-.032v-.001l.003-.032v-.001l.004-.043v-.001l.059-.558.004-.032v-.001l.005-.042v-.002l.004-.03v-.003l.001-.009v-.004l.002-.015.001-.005.001-.008.001-.005.002-.013.001-.006.001-.007.001-.007.001-.006.001-.012.001-.005.001-.008.001-.006.002-.012v-.002l.001-.012.001-.004.001-.012v-.002l.002-.014v-.003l.002-.013v-.002l.004-.03v-.001l.026-.2-.991-.137zm.736 4.124l-1 .007c.005.689.035 1.385.088 2.069l.997-.078-.032-.457v-.001l-.002-.032v-.001l-.001-.01v-.003l-.002-.029v-.017l-.001-.014v-.026000000000000002l-.001-.012v-.065l-.001-.013v-.019l-.001-.013v-.002l-.001-.012v-.004l-.001-.011v-.003l-.001-.014v-.003l-.001-.012v-.003l-.001-.029v-.003l-.001-.013v-.001l-.001-.015v-.001l-.001-.013v-.002l-.001-.029v-.002l-.001-.014-.001-.016-.001-.015v-.001l-.001-.03v-.001l-.001-.03-.001-.015v-.001l-.001-.031-.002-.047-.001-.031c-.016-.295-.023-.589-.025-.882zm.313 3.984l-.989.15c.103.68.232 1.365.384 2.036l.975-.221-.072-.328-.009-.042v-.001l-.007-.031v-.001l-.006-.031v-.001l-.006-.031v-.001l-.002-.01-.006-.031v-.002l-.006-.03-.001-.003-.006-.03v-.001l-.002-.01-.006-.031v-.001l-.006-.031v-.002l-.006-.031-.006-.032-.008-.042c-.083-.4-.154-.804-.215-1.211zm.881 3.898l-.957.29c.2.658.426 1.317.673 1.96l.933-.359-.002-.006-.002-.005-.003-.007-.002-.006-.003-.008-.003-.009-.002-.006-.003-.007-.002-.005-.004-.012-.002-.004-.004-.009-.001-.004-.005-.012-.001-.003-.004-.01-.001-.004-.005-.013-.001-.002-.004-.011-.001-.003-.01-.027-.001-.002-.01-.028v-.001l-.011-.028c-.204-.545-.392-1.098-.562-1.659zm1.434 3.731l-.905.425c.292.622.611 1.242.948 1.842l.872-.489-.166-.3v-.001l-.014-.026-.001-.002-.014-.025-.001-.003-.006-.012v-.001l-.006-.012-.002-.003-.006-.01-.001-.002-.006-.012-.002-.004-.005-.009-.002-.003-.006-.011-.003-.005-.004-.008-.002-.004-.006-.011-.002-.005-.004-.008-.003-.005-.006-.011-.003-.005-.004-.007-.003-.005-.005-.01-.003-.005-.004-.007-.003-.005-.006-.01-.003-.005-.004-.007-.003-.005-.006-.011-.003-.005-.004-.007-.003-.005-.006-.011-.002-.004-.004-.008-.003-.005-.005-.009-.003-.006-.004-.007-.003-.005-.004-.008-.004-.008-.004-.007-.003-.005-.005-.009-.003-.005-.005-.009-.003-.005-.004-.009-.003-.005-.005-.01-.002-.004-.005-.009-.002-.003-.006-.012-.002-.004-.005-.009-.002-.003-.006-.011-.002-.004-.005-.01-.002-.003-.006-.012-.002-.003-.005-.01-.001-.003-.006-.012-.001-.002-.005-.011-.001-.003-.006-.012-.001-.002-.006-.011-.001-.002-.007-.013v-.001l-.007-.013v-.001l-.014-.027-.409-.841zm1.955 3.486l-.835.55c.378.574.782 1.142 1.2 1.688l.794-.608-.003-.004-.004-.006-.004-.005-.006-.008-.004-.005-.005-.007-.003-.004-.007-.009-.003-.003-.007-.009-.003-.004-.008-.01-.001-.001-.007-.01-.002-.003-.008-.011-.001-.001-.008-.011-.002-.003-.017-.023-.001-.002-.018-.023-.001-.001-.018-.024-.001-.001-.018-.024c-.184-.245-.365-.494-.541-.745l-.018-.025-.001-.001-.008-.012v-.001l-.008-.012-.001-.002-.008-.011-.001-.001-.008-.012-.001-.002-.008-.011-.001-.001-.008-.012-.001-.002-.007-.01-.001-.002-.008-.012-.002-.003-.006-.009-.002-.003-.007-.011-.002-.003-.006-.008-.002-.004-.007-.011-.002-.004-.005-.008-.003-.004-.007-.01-.003-.005-.005-.007-.003-.005-.005-.007-.005-.008-.003-.005-.004-.006-.003-.004-.008-.011-.003-.004-.005-.007-.002-.003-.009-.013-.002-.003-.005-.008v-.001l-.011-.016-.001-.002-.005-.008-.005.003-.011-.016-.001-.001-.22-.329zm2.431 3.172l-.749.664c.456.514.936 1.019 1.428 1.5l.699-.715-.233-.231-.01-.01-.001-.001-.01-.01-.002-.002-.008-.008-.003-.003-.009-.009-.003-.003-.006-.006-.004-.004-.008-.008-.005-.005-.005-.005-.005-.005-.006-.006-.007-.007-.004-.004-.006-.006-.001-.002-.012-.013-.001-.001c-.289-.293-.571-.592-.847-.897l-.021-.023-.02-.022-.002-.002-.019-.021-.002-.003-.006-.006-.002-.003-.01-.011-.003-.004-.005-.006-.003-.003-.009-.01-.004-.004-.005-.005-.005-.006-.007-.007-.005-.005-.004-.005-.007-.007-.005-.005-.005-.006-.004-.004-.008-.009-.002-.003-.007-.008-.003-.003-.009-.012zm2.856 2.796l-.647.763c.524.445 1.071.876 1.626 1.283l.591-.807-.018-.013-.002-.002-.024-.018-.001-.001c-.357-.263-.708-.534-1.052-.813l-.001-.001-.008-.006-.001-.001-.014-.011-.003-.002-.007-.005-.003-.002-.011-.009-.004-.003-.006-.005-.005-.004-.008-.007-.005-.004-.005-.004-.006-.005-.007-.005-.007-.006-.004-.003-.009-.007-.003-.002-.01-.008-.003-.002-.01-.009-.011-.009-.002-.001-.023-.019-.001-.001-.296-.251zm3.225 2.361l-.532.847c.583.366 1.186.715 1.792 1.038l.47-.883c-.269-.143-.536-.291-.8-.443l-.001-.001-.025-.015-.003-.002-.024-.014-.003-.002-.024-.014-.004-.002-.007-.004-.004-.002-.011-.007-.005-.003-.006-.004-.007-.004-.009-.005-.006-.003-.006-.003-.01-.006-.005-.003-.007-.004-.005-.003-.008-.005-.007-.004-.007-.004-.005-.003-.009-.005-.005-.003-.009-.005-.004-.002-.01-.006-.003-.002-.01-.006-.003-.002-.011-.007-.012-.007-.003-.002-.011-.006-.001-.001-.012-.007-.002-.001-.012-.007-.013-.007-.002-.001-.012-.007h-.001l-.013-.007-.002-.001-.012-.007-.013-.008-.002-.001-.011-.007-.001-.001-.013-.008-.001-.001-.012-.007-.013-.008-.013-.008-.013-.008h-.001l-.013-.008h-.001l-.013-.008h-.001l-.012-.007-.002-.001-.025-.015-.001-.001-.025-.015-.001-.001-.026-.016-.001-.001-.025-.015-.002-.002-.024-.015-.002-.002-.012-.007-.012-.007-.003-.002-.012-.007h-.001l-.011-.007-.003-.002-.01-.006-.002-.001-.01-.006-.005-.003-.008-.005-.003-.002-.01-.006-.005-.003-.007-.004-.007-.004-.007-.005-.006-.004-.005-.003-.011-.007-.005-.003-.007-.004-.004-.003-.023-.015-.002-.001-.025-.016-.001-.001-.075-.045zm3.528 1.878l-.405.914c.629.279 1.276.538 1.923.771l.338-.941-.242-.088-.029-.011-.002-.001-.027-.01-.004-.001-.008-.003-.006-.002-.011-.004-.006-.002-.007-.002-.007-.003-.01-.004-.006-.002-.006-.002-.009-.003-.007-.003-.008-.003-.005-.002-.01-.004-.005-.002-.01-.004-.005-.002-.01-.004-.003-.001-.012-.005-.004-.001-.011-.004-.002-.001-.013-.005-.002-.001-.012-.005-.001-.001-.014-.005-.002-.001-.013-.005h-.001l-.014-.005h-.001l-.014-.005h-.001l-.028-.011h-.001l-.029-.011-.71-.286-.028-.012h-.001l-.027-.012-.002-.001-.027-.011-.002-.001-.013-.005h-.001l-.013-.006-.003-.001-.011-.005-.002-.001-.012-.005-.004-.001-.009-.004-.004-.002-.011-.005-.005-.002-.007-.003-.006-.002-.011-.005-.006-.003-.006-.003-.007-.003-.006-.002-.012-.005-.004-.002-.008-.003-.003-.001-.015-.006-.003-.001-.009-.004-.25-.112zm3.761 1.352l-.269.963c.662.185 1.34.349 2.014.485l.199-.98-.71-.154-.003-.001-.028-.006-.004-.001-.008-.002-.006-.001-.012-.003-.007-.001-.006-.001-.008-.002-.008-.002-.009-.002-.005-.001-.011-.003-.002-.001-.013-.003-.003-.001-.012-.003h-.002l-.014-.003h-.002l-.013-.003h-.001l-.03-.007c-.345-.084-.688-.172-1.027-.267zm3.916.795l-.128.992c.681.088 1.375.152 2.062.191l.057-.998c-.405-.023-.808-.055-1.209-.095h-.001l-.031-.003h-.002l-.01-.001h-.001l-.018-.002h-.003l-.009-.001h-.004l-.019-.002-.009-.001h-.005l-.008-.001-.006-.001-.012-.001-.006-.001-.007-.001-.006-.001-.011-.001-.008-.001-.007-.001-.007-.001-.006-.001-.012-.001-.005-.001-.009-.001-.005-.001-.012-.001h-.004l-.011-.001-.005-.001-.01-.001h-.004l-.013-.001h-.004l-.01-.001h-.004l-.014-.002h-.002l-.012-.001h-.003l-.013-.001h-.001l-.014-.002h-.002l-.013-.001h-.002l-.029-.003h-.002l-.03-.004h-.001l-.077-.009-.263-.036zm5.988.127l-.542.041h-.001l-.046.003h-.001l-.03.002h-.002l-.03.002h-.001l-.014.001h-.001l-.03.002h-.002l-.014.001-.015.001h-.002l-.013.001h-.002l-.015.001-.014.001h-.003l-.029.002h-.002l-.013.001h-.002l-.029.002h-.002l-.014.001-.015.001h-.002l-.013.001h-.002l-.029.001h-.002l-.03.002h-.001l-.014.001h-.001l-.03.001h-.002l-.03.001h-.001l-.015.001-.03.001h-.001l-.03.001h-.001l-.594.021h-.001l-.03.001h-.002l-.03.001h-.22000000000000006l.014 1c.689-.01 1.384-.045 2.068-.103l-.087-.993zm3.947-.627l-.461.104h-.001l-.03.007h-.002l-.028.006-.004.001-.008.002-.004.001-.014.003-.005.001-.007.001-.007.001-.01.002-.008.002-.007.001-.007.001-.006.001-.012.003-.005.001-.009.002-.005.001-.013.003h-.003l-.011.002-.004.001-.013.003h-.001l-.013.003-.003.001-.014.003-.015.003h-.002l-.014.003-.03.006-.03.006c-.383.078-.767.147-1.156.209l.157.988c.68-.108 1.364-.242 2.033-.398l-.228-.974zm3.816-1.188l-.015.006-.029.011-.029.011-.014.006-.028.011h-.001l-.028.011-.002.001-.027.011-.002.001-.027.01-.002.001-.027.01-.002.001-.013.005h-.001l-.014.005-.002.001-.013.005h-.001l-.014.005-.002.001-.012.004-.002.001-.013.005-.002.001-.012.004-.003.001-.013.005-.002.001-.012.004-.003.001-.013.005h-.001l-.013.005-.003.001-.013.005h-.001l-.013.005-.003.001-.012.004-.002.001-.013.005-.003.001-.01.004-.003.001-.013.005-.003.001-.01.004-.003.001-.013.005-.003.001-.011.004-.004.001-.013.005-.002.001-.011.004-.003.001-.013.005-.001.001-.012.004-.003.001-.026.01-.003.001-.012.005h-.001l-.013.005-.004.001-.011.004-.002.001-.013.005-.003.001-.011.004-.003.001-.013.005-.003.001-.01.004-.003.001-.013.005-.003.001-.011.004-.003.001-.013.005-.002.001-.011.004-.003.001-.013.005h-.001l-.012.004-.004.001-.011.004-.002.001-.013.005-.003.001-.011.004-.002.001-.013.005-.003.001-.011.004-.002.001-.013.005-.003.001-.012.004-.002.001-.014.005h-.001l-.012.004-.003.001-.014.005-.013.005-.002.001-.028.01h-.002l-.028.01h-.001l-.029.01h-.001c-.276.096-.553.187-.832.274l.297.955c.656-.204 1.314-.436 1.954-.687l-.362-.934zm3.605-1.726l-.669.369h-.001l-.013.007-.013.007-.002.001-.012.006-.001.001-.012.007-.003.001-.01.005-.003.001-.012.006-.004.002-.009.005-.004.002-.011.006-.004.002-.009.005-.004.002-.011.006-.005.002-.007.004-.006.003-.009.005-.007.004-.006.003-.006.003-.006.003-.011.006-.004.002-.008.004-.003.001-.014.008-.003.002-.008.004-.002.001-.015.008-.003.001-.008.004-.003.001-.016.008-.001.001-.009.005h-.001l-.084.043-.405.204h-.001l-.027.013-.002.001-.026.013-.002.001-.025.013-.003.002-.025.012-.004.002-.007.004-.005.003-.011.005-.005.003-.007.003-.007.003-.008.004-.007.003-.006.003-.008.004-.006.003-.008.004-.005.002-.01.005-.003.001-.011.005-.003.002-.012.006-.013.006-.003.001-.026.012-.002.001-.027.013.432.902c.62-.297 1.237-.62 1.835-.961l-.495-.865zm3.321-2.223c-.526.409-1.066.8-1.621 1.171l.556.831c.571-.382 1.136-.79 1.679-1.213l-.614-.789zm2.972-2.672c-.463.48-.943.943-1.439 1.389l.669.744c.511-.46 1.012-.943 1.49-1.438l-.72-.695zm2.564-3.066l-.301.409-.019.025-.018.024-.001.002-.018.023-.001.002-.017.023-.002.002-.017.022-.002.003-.005.007-.001.002-.01.013-.003.004-.005.007-.002.003-.009.012-.003.004-.005.006-.003.004-.008.011-.003.004-.005.006-.003.004-.008.01-.004.005-.004.006-.004.005-.007.009-.004.005-.004.005-.005.006-.006.008-.004.006-.004.005-.005.006-.006.008-.004.006-.004.005-.005.007-.005.006-.005.007-.004.005-.005.007-.005.007-.005.006-.004.005-.005.007-.005.006-.006.007-.004.005-.005.007-.005.006-.005.007-.004.005-.005.007-.004.005-.006.008-.004.005-.005.007-.004.005-.007.008-.003.004-.006.007-.003.004-.007.009-.003.004-.006.008-.003.003-.008.01-.003.003-.007.009-.001.002-.008.011-.002.003-.007.009-.002.002-.008.01-.002.003-.007.009-.002.002-.008.01-.002.003-.007.009-.002.002-.008.01-.002.003-.007.009-.001.002-.009.011-.002.002-.008.01-.001.002-.009.011-.001.001-.008.011-.001.001-.009.011-.001.001-.008.01-.001.001-.009.011-.001.001-.009.011-.001.001-.009.012-.001.001-.009.011-.001.001-.009.012-.01.012-.019.024-.317.386.767.641c.441-.528.869-1.078 1.271-1.635l-.814-.583zm2.101-3.4l-.065.124v.001l-.014.026-.001.002-.006.011-.001.002-.006.012-.002.003-.005.009-.002.003-.006.011-.002.004-.004.008-.003.005-.005.01-.003.006-.003.006-.003.006-.005.01-.004.007-.002.005-.013.024-.004.004-.014.025-.001.002-.015.027-.015.028c-.139.256-.282.51-.429.762l-.015.026-.001.002-.015.025-.001.002-.005.008-.009.016-.002.003-.004.007-.002.004-.007.012-.003.004-.004.007-.003.006-.005.009-.004.007-.003.005-.005.008-.004.006-.004.008-.003.005-.005.009-.002.004-.006.01-.002.004-.006.011v.001l-.007.012-.002.003-.007.011v.001l-.007.012-.001.002-.015.025v.001l-.195.319.851.526c.362-.585.707-1.191 1.025-1.8l-.889-.464zm1.592-3.666c-.222.631-.465 1.252-.73 1.862l.917.398c.274-.631.529-1.28.756-1.929l-.943-.331zm1.049-3.856l-.154.736v.001l-.007.03v.001l-.007.03v.001l-.003.014-.003.015v.002l-.003.013v.002l-.003.014v.002l-.003.012-.001.003-.003.014-.003.013-.001.003-.003.012v.002l-.003.013-.001.004-.002.011-.001.003-.003.013-.001.004-.002.009-.001.005-.003.012-.001.005-.002.009-.001.005-.003.011-.001.006-.002.008-.001.006-.002.008-.002.009-.002.008-.002.007-.001.006-.003.011-.002.007-.002.007-.001.005-.002.008-.001.003-.004.016-.001.004-.002.008-.001.003-.004.017-.001.003-.002.009-.001.003-.004.018v.002l-.002.009-.001.002-.007.029v.002l-.007.03v.001l-.173.67.965.262c.18-.664.339-1.342.471-2.018l-.984-.193zm.482-3.968c-.033.671-.09 1.334-.17 1.992l.993.121c.083-.682.142-1.376.176-2.064l-.999-.049zm.91-4.089l-.996.093.001.005v.006l.001.007.001.007.001.009.001.008.001.007.001.007v.007l.001.012v.006l.001.008.001.006.001.009v.006l.001.01.001.006.001.007.001.006.001.012v.006l.001.008.001.006.001.008.001.01.001.008v.007l.001.007.001.007.001.011.001.007v.006l.001.007.001.007.001.011.001.007.001.007.001.007v.006l.001.012v.007l.001.007v.007l.001.007.001.012v.006l.001.008v.006l.001.011.001.008v.014l.001.008v.005l.001.014v.005l.001.008v.005l.001.015v.005l.001.008v.005l.001.008v.003l.001.016v.004l.001.009v.004l.001.019.001.009v.004l.002.03v.002l.001.01v.002l.002.031v.002l.002.031v.001l.001.011.002.033c.02.295.035.592.046.889v.001l.001.032v.013000000000000001l.001.02v.016l.001.018v.17900000000000005l.003.125 1-.021c-.011-.692-.051-1.387-.114-2.071zm-.68-4.084l-.972.235.133.577.007.03.003.014v.002l.006.028.001.003.003.012v.002l.003.013.001.004.002.011.001.003.003.013.001.005.002.009.001.005.003.012.001.005.002.008.001.006.002.009.002.007.002.008.001.007.001.007.002.009.002.009.001.007.001.006.001.007.002.011.001.008.001.005.002.008.001.005.003.013.001.005.002.008.001.004.003.016.001.003.002.008.001.004.006.028v.003l.006.03v.002l.006.031.002.01.006.032.006.031v.001l.093.491.006.032v.001l.005.031v.001l.007.042v.001l.005.031v.001l.005.03v.002l.005.03v.002l.002.01v.002l.003.02.002.01v.002l.005.029.001.004.005.028.001.003.001.009v.003l.003.017v.003l.001.009.001.004.001.007.986-.164c-.107-.679-.246-1.362-.408-2.03zm-1.26-3.945l-.928.372c.115.286.225.575.331.866v.001l.01.029v.001l.01.029v.001l.01.028.001.002.01.028.001.002.003.009v.001l.006.017.001.003.003.009.001.002.006.017.001.002.003.009.001.004.005.015.001.003.003.008.002.005.004.012.002.005.003.008.002.005.003.007.001.003.005.014.001.004.003.008.001.002.006.016.002.004.003.008.001.004.005.014.002.005.003.008.002.004.005.013.001.004.003.008.002.005.004.013.002.005.003.008.001.004.005.014.001.004.003.008.002.005.009.025.001.005.009.026.001.004.003.008.001.003.005.016.001.003.003.008.001.003.005.016.001.004.003.008.001.003.005.016.001.002.003.009.001.002.009.028.001.002.01.029v.001l.01.03.104.32.953-.304c-.211-.657-.447-1.313-.703-1.952zm-1.815-3.721l-.865.502.226.398v.001l.009.016.001.002.004.008.002.004.006.011.003.006.003.005.004.008.002.004.006.011.002.004.006.01.001.002.007.012.001.002.015.026c.224.406.437.817.641 1.235l.899-.438c-.3-.619-.628-1.234-.973-1.829zm-2.327-3.423l-.785.62.24.308.009.012.009.012.001.001.009.012v.001l.008.011.001.002.009.012.001.001.008.011.002.002.008.011.001.001.007.01.002.003.008.011.001.002.007.009.002.003.008.011.001.001.007.01.002.003.008.011.002.002.007.009.003.003.007.01.003.004.006.008.003.004.007.009.003.003.006.008.003.004.007.009.003.004.006.009.003.004.007.009.003.003.007.009.003.004.006.008.004.005.006.008.003.005.005.007.004.006.006.008.004.005.005.007.004.005.006.008.004.005.005.006.005.007.006.007.004.005.004.006.005.007.005.007.004.005.005.006.004.006.006.008.004.005.004.006.005.007.005.007.004.005.004.005.005.007.006.008.004.005.004.005.005.007.006.008.004.005.004.006.004.005.007.009.004.005.004.006.004.005.007.009.004.005.004.006.004.005.007.009.004.005.004.005.004.006.006.009.004.006.004.005.004.006.006.009.004.006.003.005.004.006.006.009.004.006.004.005.004.006.007.009.004.005.004.005.004.006.006.008.005.006.004.006.004.005.007.009.004.005.004.006.004.005.006.009.004.005.004.006.004.005.006.008.004.006.004.006.004.006.005.007.005.007.005.007.004.005.005.007.005.007.004.006.004.005.005.007.005.007.004.006.004.005.005.007.005.007.004.006.004.006.004.006.006.008.004.006.004.006.004.006.006.008.004.006.004.005.005.006.005.008.004.006.004.006.004.006.005.008.004.006.004.006.004.006.005.008.005.007.004.005.004.006.006.008.004.006.004.006.004.006.005.008.005.007.004.005.004.006.004.006.006.008.004.005.004.006.005.007.005.008.004.005.004.006.003.005.006.009.004.006.004.006.004.005.006.009.004.006.004.005.004.006.006.009.004.006.003.005.004.006.006.009.004.006.004.005.004.006.006.009.004.006.003.005.004.006.006.009.004.006.003.005.004.006.004.005.004.006.827-.562c-.387-.572-.799-1.134-1.225-1.673zm-2.79-3.058l-.689.725.164.157.001.001.007.007.001.001.013.012.003.002.006.006.004.004.008.008.005.005.004.004.006.006.005.005.007.007.004.003.009.008.002.002.009.009.002.002.02.02.002.002.021.021.001.001c.257.251.508.507.755.768l.021.022.021.022.001.001.02.021.002.002.019.021.003.003.009.01.009.01.003.003.008.008.003.003.008.008.004.004.006.006.005.006.006.007.004.005.005.005.007.008.004.005.005.006.003.004.01.011.003.003.006.006.003.003.019.021.001.001.122.133.739-.674c-.463-.509-.951-1.006-1.449-1.48zm-3.195-2.631l-.579.815c.262.186.52.377.775.571l.048.037.003.002.007.005.003.002.012.009.003.003.006.005.004.003.01.007.005.004.006.004.006.005.007.005.006.005.005.004.007.005.005.004.008.006.004.003.008.006.003.002.01.008.003.003.01.008.001.001.011.009.002.002.022.017.002.002.023.018.001.001.024.019.536.43.636-.772c-.529-.437-1.082-.86-1.643-1.258zm-3.537-2.151l-.457.889c.594.305 1.176.631 1.745.977l.52-.854c-.588-.357-1.197-.698-1.808-1.012zm-3.81-1.622l-.324.946c.44.151.874.312 1.305.484l.028.011h.001l.028.011.002.001.013.005h.001l.013.005.002.001.011.004.003.001.013.005.003.001.01.004.003.001.012.005.003.001.01.004.004.002.012.005.003.001.009.004.005.002.012.005.003.001.009.004.005.002.009.004.007.003.008.003.006.002.007.003.008.003.007.003.006.003.006.003.01.004.006.003.007.003.005.002.025.01.004.002.026.011.003.001.027.011.002.001.028.012.135.057.392-.92c-.631-.267-1.282-.517-1.933-.74zm-4.004-1.056l-.185.983.554.11.03.006.03.006h.001l.014.003h.001l.029.006h.002l.028.006.003.001.013.003h.001l.014.003.004.001.011.002.003.001.013.003.003.001.01.002.004.001.013.003.003.001.01.002.005.001.011.002.005.001.01.002.005.001.009.002.005.001.012.003.006.001.008.002.006.001.012.003.006.001.007.002.007.001.008.002.011.002.005.001.008.002.005.001.013.003.005.001.008.002.004.001.017.004h.002l.008.002.004.001.028.006.003.001.009.002h.002l.017.004.004.001.009.002.003.001.018.004h.001l.01.002h.002l.019.005.009.002.002.001.029.007h.002l.104.024.031.008.641.161.255-.967c-.662-.174-1.342-.327-2.019-.454zm-4.113-.47l-.042.999.014.001h.003l.013.001h.002l.014.001h.018000000000000002l.013.001h.1l.018.001h.014l.031.002h.002c.588.03 1.171.078 1.749.144l.113-.994c-.679-.073-1.374-.127-2.062-.156z"/><linearGradient id="b" gradientUnits="userSpaceOnUse" x1="45.43" y1="21.299" x2="45.43" y2="71.031"><stop offset="0" stop-color="#F3F3F3"/><stop offset=".423" stop-color="#E4E4E4"/><stop offset=".499" stop-color="#E1E1E1"/><stop offset=".501" stop-color="#F2F2F2"/></linearGradient><path fill="url(#b)" d="M45.43 67.878c-12.422 0-22.527-10.106-22.527-22.527 0-12.421 10.105-22.528 22.527-22.528 12.42 0 22.527 10.107 22.527 22.528s-10.106 22.527-22.527 22.527z"/><linearGradient id="c" gradientUnits="userSpaceOnUse" x1="51.137" y1="67.564" x2="40.021" y2="24.306"><stop offset="0" stop-color="#DFDFDE"/><stop offset=".093" stop-color="#EDEDED"/><stop offset=".626" stop-color="#fff"/></linearGradient><path fill="url(#c)" d="M45.43 66.805c-11.832 0-21.456-9.623-21.456-21.454 0-11.832 9.624-21.456 21.456-21.456 11.831 0 21.454 9.623 21.454 21.456 0 11.831-9.623 21.454-21.454 21.454z"/><path stroke="#000" d="M63.463 39.826M27.436 39.826M63.597 52.148M27.57 52.148" fill="none"/></g></svg>